<svg width="22" height="30" viewBox="0 0 22 30" fill="none" xmlns="http://www.w3.org/2000/svg">
<g clip-path="url(#clip0_114_6825)">
<path fill-rule="evenodd" clip-rule="evenodd" d="M3.33934 2.52213C4.54349 1.36405 6.00775 0.511558 7.60934 0.0361328C7.93934 0.955133 8.27934 1.87213 8.61934 2.79013C8.76877 3.07213 9.01321 3.29213 9.30934 3.41113C9.37934 4.10413 9.36934 4.81113 9.48934 5.49413C9.67076 6.34339 10.1193 7.11226 10.7693 7.68813C11.3633 8.12779 11.7928 8.75377 11.9893 9.46613C12.0681 9.9417 12.027 10.4294 11.8699 10.8851C11.7127 11.3408 11.4445 11.7502 11.0893 12.0761C11.0145 11.897 10.8803 11.7491 10.7093 11.6571C10.3593 11.4921 9.80934 11.6161 9.81934 12.0031C9.78934 13.3341 9.80934 14.8291 9.81934 16.1591C9.80934 20.6511 9.81934 25.0591 9.81934 29.5501C9.84934 29.8071 9.64934 30.1141 9.43934 29.9501C9.29113 29.7706 9.16676 29.5726 9.06934 29.3611C6.57934 24.9298 4.08601 20.4985 1.58934 16.0671C1.30591 15.5991 1.05208 15.1139 0.829339 14.6141C0.147837 12.963 -0.119927 11.1703 0.0493393 9.39213C0.277139 6.77821 1.44624 4.3359 3.33934 2.51913M4.22934 7.65113C4.27934 8.52713 4.34934 9.40113 4.40934 10.2771C4.49406 11.6033 5.03867 12.8584 5.94934 13.8261C6.77476 14.7015 7.86309 15.284 9.04934 15.4851V12.7361C8.398 12.6535 7.79526 12.3482 7.34328 11.872C6.8913 11.3957 6.61787 10.7779 6.56934 10.1231C6.54559 9.51145 6.28785 8.93225 5.84934 8.50513C5.3607 8.13219 4.81315 7.84354 4.22934 7.65113ZM10.8693 0.421133C10.975 0.391599 11.0859 0.386686 11.1937 0.40677C11.3016 0.426854 11.4033 0.471401 11.4912 0.536984C11.5791 0.602566 11.6508 0.687437 11.7007 0.785066C11.7507 0.882695 11.7776 0.990482 11.7793 1.10013C11.7859 1.27974 11.7265 1.45555 11.6122 1.5943C11.498 1.73305 11.3369 1.82513 11.1593 1.85313C10.9919 1.87179 10.8231 1.83119 10.6825 1.73839C10.5418 1.64559 10.4381 1.50645 10.3893 1.34513C10.3309 1.15895 10.3487 0.957211 10.4386 0.784051C10.5286 0.610892 10.6834 0.480405 10.8693 0.421133Z" fill="#EFB007"/>
<path fill-rule="evenodd" clip-rule="evenodd" d="M14.2706 0C16.9035 0.758127 19.1424 2.50299 20.5206 4.871C21.4214 6.43282 21.9269 8.1911 21.9932 9.99286C22.0594 11.7946 21.6843 13.5853 20.9006 15.209C18.1606 20.0757 15.4206 24.946 12.6806 29.82C12.5706 30.109 12.1906 29.868 12.1806 29.552C12.1706 24.781 12.1906 20.47 12.1806 15.699C13.2402 15.3833 14.1901 14.7768 14.9224 13.9483C15.6546 13.1199 16.14 12.1028 16.3232 11.0124C16.5065 9.92209 16.3804 8.80218 15.9593 7.77988C15.5381 6.75758 14.8388 5.87384 13.9406 5.229C13.6542 5.08189 13.4099 4.86442 13.2306 4.597C13.0586 4.18253 12.9801 3.73526 13.0006 3.287C13.2745 3.12603 13.51 2.90728 13.6906 2.646C13.8906 1.766 14.0706 0.88 14.2706 0Z" fill="#222222"/>
</g>
<defs>
<clipPath id="clip0_114_6825">
<rect width="22" height="30" fill="white"/>
</clipPath>
</defs>
</svg>
