<svg width="20" height="20" viewBox="0 0 20 20" fill="none" xmlns="http://www.w3.org/2000/svg">
<path d="M5.77 17.89V7.17H2.21V17.89H5.77ZM3.99 5.71C5.23 5.71 6.01 4.89 6.01 3.86C5.99 2.8 5.24 2 4.02 2C2.8 2 2 2.8 2 3.85C2 4.88 2.77 5.7 3.97 5.7H3.99V5.71Z" fill="black"/>
<path d="M7.75 17.8899H11.31V11.8999C11.31 11.5799 11.33 11.2599 11.43 11.0299C11.69 10.3899 12.27 9.72992 13.26 9.72992C14.55 9.72992 15.06 10.7099 15.06 12.1499V17.8899H18.62V11.7399C18.62 8.44992 16.86 6.91992 14.52 6.91992C12.6 6.91992 11.75 7.98992 11.28 8.72992H11.3V7.16992H7.75C7.79 8.16992 7.75 17.8899 7.75 17.8899Z" fill="black"/>
</svg>
