<svg width="20" height="20" viewBox="0 0 20 20" fill="none" xmlns="http://www.w3.org/2000/svg">
<path d="M13.55 1H6.46C3.45 1 1 3.44 1 6.44V13.56C1 16.56 3.45 19 6.46 19H13.54C16.56 19 19 16.56 19 13.56V6.44C19.01 3.44 16.56 1 13.55 1ZM17.5 14C17.5 15.93 15.93 17.5 14 17.5H6C4.07 17.5 2.5 15.93 2.5 14V6C2.5 4.07 4.07 2.5 6 2.5H14C15.93 2.5 17.5 4.07 17.5 6V14Z" fill="black"/>
<path d="M14.8693 6.34992C15.4713 6.34992 15.9593 5.86191 15.9593 5.25992C15.9593 4.65793 15.4713 4.16992 14.8693 4.16992C14.2673 4.16992 13.7793 4.65793 13.7793 5.25992C13.7793 5.86191 14.2673 6.34992 14.8693 6.34992Z" fill="black"/>
<path d="M10.0304 5.4502C7.48039 5.4502 5.40039 7.5102 5.40039 10.0502C5.40039 12.6002 7.47039 14.6602 10.0304 14.6602C12.5904 14.6602 14.6604 12.5992 14.6604 10.0502C14.6504 7.5102 12.5804 5.4502 10.0304 5.4502ZM10.0804 13.0002C8.42039 13.0002 7.08039 11.6602 7.08039 10.0102C7.08039 8.3602 8.42039 7.0202 10.0804 7.0202C11.7404 7.0202 13.0804 8.3602 13.0804 10.0102C13.0804 11.6602 11.7404 13.0002 10.0804 13.0002Z" fill="black"/>
</svg>
