<svg width="22" height="30" viewBox="0 0 22 30" fill="none" xmlns="http://www.w3.org/2000/svg">
<g clip-path="url(#clip0_114_4016)">
<path fill-rule="evenodd" clip-rule="evenodd" d="M3.34032 2.52213C4.54446 1.36405 6.00872 0.511558 7.61032 0.0361328C7.94032 0.955133 8.28032 1.87213 8.62032 2.79013C8.76975 3.07213 9.01419 3.29213 9.31032 3.41113C9.38032 4.10413 9.37032 4.81113 9.49032 5.49413C9.67174 6.34339 10.1203 7.11226 10.7703 7.68813C11.3643 8.12779 11.7938 8.75377 11.9903 9.46613C12.069 9.9417 12.028 10.4294 11.8708 10.8851C11.7137 11.3408 11.4454 11.7502 11.0903 12.0761C11.0155 11.897 10.8813 11.7491 10.7103 11.6571C10.3603 11.4921 9.81032 11.6161 9.82032 12.0031C9.79032 13.3341 9.81032 14.8291 9.82032 16.1591C9.81032 20.6511 9.82032 25.0591 9.82032 29.5501C9.85032 29.8071 9.65032 30.1141 9.44032 29.9501C9.2921 29.7706 9.16774 29.5726 9.07032 29.3611C6.58032 24.9298 4.08698 20.4985 1.59032 16.0671C1.30689 15.5991 1.05306 15.1139 0.830316 14.6141C0.148814 12.963 -0.11895 11.1703 0.0503158 9.39213C0.278115 6.77821 1.44721 4.3359 3.34032 2.51913M4.23032 7.65113C4.28032 8.52713 4.35032 9.40113 4.41032 10.2771C4.49504 11.6033 5.03965 12.8584 5.95032 13.8261C6.77574 14.7015 7.86407 15.284 9.05032 15.4851V12.7361C8.39897 12.6535 7.79624 12.3482 7.34425 11.872C6.89227 11.3957 6.61885 10.7779 6.57032 10.1231C6.54657 9.51145 6.28882 8.93225 5.85032 8.50513C5.36167 8.13219 4.81413 7.84354 4.23032 7.65113ZM10.8703 0.421133C10.9759 0.391599 11.0869 0.386686 11.1947 0.40677C11.3025 0.426854 11.4043 0.471401 11.4922 0.536984C11.5801 0.602566 11.6518 0.687437 11.7017 0.785066C11.7517 0.882695 11.7786 0.990482 11.7803 1.10013C11.7869 1.27974 11.7275 1.45555 11.6132 1.5943C11.499 1.73305 11.3379 1.82513 11.1603 1.85313C10.9928 1.87179 10.8241 1.83119 10.6834 1.73839C10.5428 1.64559 10.4391 1.50645 10.3903 1.34513C10.3319 1.15895 10.3496 0.957211 10.4396 0.784051C10.5295 0.610892 10.6844 0.480405 10.8703 0.421133Z" fill="#EFB007"/>
<path fill-rule="evenodd" clip-rule="evenodd" d="M14.2696 0C16.9026 0.758127 19.1414 2.50299 20.5196 4.871C21.4204 6.43282 21.926 8.1911 21.9922 9.99286C22.0584 11.7946 21.6834 13.5853 20.8996 15.209C18.1596 20.0757 15.4196 24.946 12.6796 29.82C12.5696 30.109 12.1896 29.868 12.1796 29.552C12.1696 24.781 12.1896 20.47 12.1796 15.699C13.2393 15.3833 14.1891 14.7768 14.9214 13.9483C15.6537 13.1199 16.139 12.1028 16.3223 11.0124C16.5056 9.92209 16.3795 8.80218 15.9583 7.77988C15.5371 6.75758 14.8378 5.87384 13.9396 5.229C13.6533 5.08189 13.4089 4.86442 13.2296 4.597C13.0577 4.18253 12.9791 3.73526 12.9996 3.287C13.2735 3.12603 13.509 2.90728 13.6896 2.646C13.8896 1.766 14.0696 0.88 14.2696 0Z" fill="#222222"/>
</g>
<defs>
<clipPath id="clip0_114_4016">
<rect width="22" height="30" fill="white"/>
</clipPath>
</defs>
</svg>
