<svg width="26" height="26" viewBox="0 0 26 26" fill="none" xmlns="http://www.w3.org/2000/svg">
<path d="M24.248 18.5H1.75C1.55109 18.5 1.36032 18.579 1.21967 18.7197C1.07902 18.8603 1 19.0511 1 19.25V24.25C1 24.664 1.336 25 1.75 25H24.248C24.4469 25 24.6377 24.921 24.7783 24.7803C24.919 24.6397 24.998 24.4489 24.998 24.25V19.25C24.998 19.0511 24.919 18.8603 24.7783 18.7197C24.6377 18.579 24.4469 18.5 24.248 18.5ZM23.498 23.5H2.5V20H23.498V23.5ZM24.25 9.75H1.75C1.55109 9.75 1.36032 9.82902 1.21967 9.96967C1.07902 10.1103 1 10.3011 1 10.5V15.5C1 15.914 1.336 16.25 1.75 16.25H24.25C24.4489 16.25 24.6397 16.171 24.7803 16.0303C24.921 15.8897 25 15.6989 25 15.5V10.5C25 10.3011 24.921 10.1103 24.7803 9.96967C24.6397 9.82902 24.4489 9.75 24.25 9.75ZM23.5 14.75H2.5V11.25H23.5V14.75ZM1.75 7.5H24.248C24.4469 7.5 24.6377 7.42098 24.7783 7.28033C24.919 7.13968 24.998 6.94891 24.998 6.75V1.75C24.998 1.55109 24.919 1.36032 24.7783 1.21967C24.6377 1.07902 24.4469 1 24.248 1H1.75C1.55109 1 1.36032 1.07902 1.21967 1.21967C1.07902 1.36032 1 1.55109 1 1.75V6.75C1 7.164 1.336 7.5 1.75 7.5ZM2.5 2.5H23.498V6H2.5V2.5Z" fill="#222222"/>
</svg>
